<?xml version="1.0" encoding="UTF-8"?>
<svg id="Ebene_1" data-name="Ebene 1" xmlns="http://www.w3.org/2000/svg" viewBox="0 0 595.28 151.82">
  <defs>
    <style>
      .cls-1 {
        fill: #fff;
        stroke-width: 0px;
      }
    </style>
  </defs>
  <polyline class="cls-1" points="270.75 59.27 286.32 94.09 286.32 116.21 258.88 59.27 270.75 59.27"/>
  <path class="cls-1" d="M32.88,68.29h-.35v-9.02h-10.47v55.55h10.47v-27.3c0-9.02,1.4-19.7,12.68-19.7,2.44,0,4.54.59,6.4,2.26l4.77-9.73c-2.56-1.66-5.58-2.73-8.61-2.73-6.98,0-12.33,4.16-14.89,10.68Z"/>
  <path class="cls-1" d="M239.75,27.48v41.05h-.23c-4.3-6.65-10.82-10.92-18.96-10.92-15.71,0-25.59,13.89-25.59,29.08s9.31,30.03,26.06,30.03c7.68,0,14.31-4.27,18.5-10.56h.23v8.67h10.47V27.48h-10.47ZM222.64,107.23c-11.05,0-17.22-9.73-17.22-20.18s6.4-19.94,17.22-19.94,17.68,9.14,17.68,19.94-6.28,20.18-17.68,20.18Z"/>
  <path class="cls-1" d="M380.09,67.82c-10.35,0-18.61,8.78-18.61,19.35s8.26,19.35,18.61,19.35,18.61-8.9,18.61-19.35-8.26-19.35-18.61-19.35Z"/>
  <path class="cls-1" d="M482.26,27.48v52.68l20.47-20.89h13.84l-23.27,23.03,25.59,32.52h-13.61l-19.43-25.28-3.61,3.68v21.6h-10.47V27.48h-185.47v66.62l.25.55,16.05-38.46,15.94,38.46,15.82-35.37h11.87l-27.69,57.45-15.94-37.15-16.05,37.15-.25-.51v8.13h286.89V27.48h-90.95ZM380.09,116.72c-16.29,0-29.08-12.82-29.08-29.56s12.8-29.56,29.08-29.56,29.08,12.82,29.08,29.56-12.8,29.56-29.08,29.56ZM456.06,70.07c-1.86-1.66-3.96-2.26-6.4-2.26-11.28,0-12.68,10.68-12.68,19.7v27.3h-10.47v-55.55h10.47v9.02h.35c2.56-6.53,7.91-10.68,14.89-10.68,3.02,0,6.05,1.07,8.61,2.73l-4.77,9.73ZM544.74,116.72c-7.91,0-15.94-4.63-18.85-12.46l8.96-4.15c2.21,4.15,4.89,7.12,9.89,7.12,4.42,0,8.26-3.09,8.26-7.83,0-2.97-1.4-4.39-3.84-6.05l-10.24-5.58c-6.05-3.32-10.47-6.41-10.47-14.01,0-9.02,7.21-16.14,16.05-16.14,6.63,0,11.98,3.68,14.89,9.73l-8.49,4.63c-1.28-2.73-3.96-4.87-6.98-4.87s-5.7,2.37-5.7,5.46c0,4.87,6.28,7,12.68,9.97,6.4,2.97,12.56,7,12.56,15.79,0,10.56-8.61,18.4-18.73,18.4Z"/>
  <path class="cls-1" d="M113.9,87.17c0-16.5-8.14-29.56-25.48-29.56s-26.52,12.82-26.52,29.91,10.12,29.2,26.76,29.2c10.59,0,20.13-5.58,25.24-15.19l-8.84-5.1c-3.96,6.65-8.26,10.8-16.29,10.8-10,0-16.29-8.9-16.4-18.4h41.53v-1.66ZM72.95,80.76c1.28-7.95,7.33-13.89,15.47-13.89s13.73,5.58,15.01,13.89h-30.48Z"/>
  <path class="cls-1" d="M171.04,59.27v9.26h-.23c-4.3-6.65-10.82-10.92-18.85-10.92-15.82,0-25.71,13.89-25.71,29.08s9.42,30.03,26.06,30.03c7.79,0,14.31-4.27,18.5-10.56h.23v8.67h10.47v-55.55h-10.47ZM153.94,107.23c-11.05,0-17.22-9.73-17.22-20.18s6.4-19.94,17.22-19.94,17.68,9.14,17.68,19.94-6.28,20.18-17.68,20.18Z"/>
</svg>