<?xml version="1.0" encoding="UTF-8"?>
<svg id="Ebene_1" data-name="Ebene 1" xmlns="http://www.w3.org/2000/svg" viewBox="0 0 595.28 151.82">
  <defs>
    <style>
      .cls-1 {
        fill: #000;
        stroke-width: 0px;
      }
    </style>
  </defs>
  <path class="cls-1" d="M164.09,67.11c-10.82,0-17.22,9.61-17.22,19.94s6.17,20.18,17.22,20.18,17.68-9.26,17.68-20.18-6.4-19.94-17.68-19.94Z"/>
  <path class="cls-1" d="M232.79,67.11c-10.82,0-17.22,9.61-17.22,19.94s6.17,20.18,17.22,20.18,17.68-9.26,17.68-20.18-6.4-19.94-17.68-19.94Z"/>
  <path class="cls-1" d="M98.57,66.87c-8.14,0-14.19,5.93-15.47,13.89h30.48c-1.28-8.31-6.63-13.89-15.01-13.89Z"/>
  <polygon class="cls-1" points="328.71 94.64 312.77 56.19 296.72 94.64 296.47 94.09 296.47 116.21 296.72 116.72 312.77 79.57 328.71 116.72 356.39 59.27 344.53 59.27 328.71 94.64"/>
  <path class="cls-1" d="M390.23,57.61c-16.29,0-29.08,12.82-29.08,29.56s12.8,29.56,29.08,29.56,29.08-12.82,29.08-29.56-12.8-29.56-29.08-29.56ZM390.23,106.51c-10.35,0-18.61-8.9-18.61-19.35s8.26-19.35,18.61-19.35,18.61,8.78,18.61,19.35-8.26,19.35-18.61,19.35Z"/>
  <path class="cls-1" d="M447.48,68.29h-.35v-9.02h-10.47v55.55h10.47v-27.3c0-9.02,1.4-19.7,12.68-19.7,2.44,0,4.54.59,6.4,2.26l4.77-9.73c-2.56-1.66-5.58-2.73-8.61-2.73-6.98,0-12.33,4.16-14.89,10.68Z"/>
  <path class="cls-1" d="M561.05,82.54c-6.4-2.97-12.68-5.1-12.68-9.97,0-3.09,2.79-5.46,5.7-5.46s5.7,2.14,6.98,4.87l8.49-4.63c-2.91-6.05-8.26-9.73-14.89-9.73-8.84,0-16.05,7.12-16.05,16.14,0,7.6,4.42,10.68,10.47,14.01l10.24,5.58c2.44,1.66,3.84,3.09,3.84,6.05,0,4.75-3.84,7.83-8.26,7.83-5,0-7.68-2.97-9.89-7.12l-8.96,4.15c2.91,7.83,10.94,12.46,18.85,12.46,10.12,0,18.73-7.83,18.73-18.4,0-8.78-6.17-12.82-12.56-15.79Z"/>
  <polygon class="cls-1" points="526.73 59.27 512.88 59.27 492.41 80.16 492.41 27.48 481.94 27.48 481.94 114.82 492.41 114.82 492.41 93.22 496.01 89.54 515.44 114.82 529.05 114.82 503.46 82.3 526.73 59.27"/>
  <path class="cls-1" d="M296.47,94.09V27.48h-36.11v87.34h-10.47v-8.67h-.23c-4.19,6.29-10.82,10.56-18.5,10.56-16.75,0-26.06-14.12-26.06-30.03s9.89-29.08,25.59-29.08c8.14,0,14.66,4.27,18.96,10.92h.23V27.48H21.66v96.86h274.81v-8.13l-27.44-56.94h11.87l15.58,34.82ZM61.76,70.07c-1.86-1.66-3.96-2.26-6.4-2.26-11.28,0-12.68,10.68-12.68,19.7v27.3h-10.47v-55.55h10.47v9.02h.35c2.56-6.53,7.91-10.68,14.89-10.68,3.02,0,6.05,1.07,8.61,2.73l-4.77,9.73ZM124.04,88.83h-41.53c.12,9.5,6.4,18.4,16.4,18.4,8.03,0,12.33-4.15,16.29-10.8l8.84,5.1c-5.12,9.61-14.66,15.19-25.24,15.19-16.64,0-26.76-12.82-26.76-29.2s8.96-29.91,26.52-29.91,25.48,13.06,25.48,29.56v1.66ZM191.66,114.82h-10.47v-8.67h-.23c-4.19,6.29-10.7,10.56-18.5,10.56-16.64,0-26.06-14.12-26.06-30.03s9.89-29.08,25.71-29.08c8.03,0,14.54,4.27,18.85,10.92h.23v-9.26h10.47v55.55Z"/>
</svg>