<?xml version="1.0" standalone="no"?>
<!DOCTYPE svg PUBLIC "-//W3C//DTD SVG 20010904//EN"
 "http://www.w3.org/TR/2001/REC-SVG-20010904/DTD/svg10.dtd">
<svg version="1.0" xmlns="http://www.w3.org/2000/svg"
 width="2048.000000pt" height="2048.000000pt" viewBox="0 0 2048.000000 2048.000000"
 preserveAspectRatio="xMidYMid meet">
<metadata>
Created by potrace 1.14, written by Peter Selinger 2001-2017
</metadata>
<g transform="translate(0.000000,2048.000000) scale(0.100000,-0.100000)"
fill="#000000" stroke="none">
<path d="M3510 20343 c-517 -38 -1091 -217 -1555 -486 -916 -530 -1563 -1446
-1764 -2499 -42 -218 -52 -347 -61 -743 -11 -505 -11 -12191 0 -12730 8 -414
17 -529 59 -756 103 -560 353 -1120 699 -1569 600 -777 1474 -1278 2452 -1405
69 -9 222 -20 340 -25 301 -13 12852 -13 13135 0 235 11 323 20 505 51 1143
201 2128 936 2648 1975 186 371 308 775 362 1199 5 44 14 166 20 270 13 259
13 12970 0 13230 -27 528 -145 983 -375 1450 -193 391 -416 697 -731 1005
-404 393 -853 669 -1394 853 -198 68 -430 122 -705 164 -103 16 -555 17 -6850
18 -3707 1 -6760 0 -6785 -2z m1265 -6333 c325 -27 615 -108 960 -267 114 -53
290 -146 308 -163 7 -6 -365 -745 -709 -1407 l-85 -162 -92 60 c-110 73 -299
166 -420 208 -165 57 -273 75 -462 75 -182 0 -279 -11 -415 -49 -506 -142
-822 -563 -949 -1265 -58 -323 -55 -196 -58 -2502 l-4 -2118 -879 0 -880 0 0
3695 0 3695 880 0 880 0 0 -327 0 -326 128 124 c471 460 846 664 1322 718 192
22 305 25 475 11z m3679 -442 c7 -13 451 -871 985 -1908 l971 -1885 -2 -1678
-3 -1678 -1956 3578 c-1076 1968 -1954 3581 -1952 3586 2 4 440 7 973 7 l970
0 14 -22z"/>
</g>
</svg>
